<svg width="496" height="470" viewBox="0 0 496 470" fill="none" xmlns="http://www.w3.org/2000/svg">
<path d="M355.903 284.804C355.903 373.3 274.999 468 178.759 468C82.5181 468 24.2905 384.312 24.2905 295.793C24.2905 207.273 125.387 135.555 211.735 150.909C306.71 167.784 355.903 196.309 355.903 284.804Z" stroke="black" stroke-width="3" stroke-miterlimit="10"/>
<path d="M206.699 145.231C206.699 196.096 156.514 250.528 96.8162 250.528C37.1184 250.528 1 202.426 1 151.547C1 100.668 63.7099 59.4455 117.271 68.2708C176.184 77.9701 206.699 94.3659 206.699 145.231Z" stroke="black" stroke-miterlimit="10"/>
<path d="M495 187.62C495 295.107 391.521 375.483 273.735 375.483C155.949 375.483 92.357 316.454 55.9074 214.222C28.5199 137.431 117.222 1 235.009 1C352.795 1 495 80.1334 495 187.62Z" stroke="black" stroke-width="1.5" stroke-miterlimit="10"/>
</svg>
